:SAMPLES-PER-SECOND 30
:FULLY-SPECIFIED
:DEGREES
434
root  -32.5642 29.4188 13.2042 -162.781 -50.7327 168.644
RightUpLeg  -50.863 8.37828 -2.21858
RightLeg  60.7311 -2.0223 -3.20705
RightFoot  -9.82345 -0.000844549 0.367747
RightToes  -18.4443 -0.0729571 -0.164197
Spine  9.78105 -4.38202 6.19161
Spine1  18.3276 -8.46247 5.9795
HEad  22.142 1.55556 -6.66283
LeftShoulder1  0 -2.42657e-020 -4.95415e-022
LeftArm  -27.483 -2.44485 -88.6134
LeftForeArm  -149.374 -20.3176 -3.32864
LeftHand  10.6615 -24.6742 -46.5894
RightShoulder  0 2.42657e-020 1.07489e-018
RightArm  -78.2682 22.2394 51.431
RightForeArm  40.209 39.2096 8.26587
RightHand  -1.49783 23.7351 -6.75071
LeftUpLeg  -3.07663 -4.46768 -1.86828
LeftLeg  67.6436 -0.395831 -0.824405
LeftFoot  -0.371977 3.36545e-006 0.00102762
LeftToes  -30.3872 1.18758e-006 1.19596e-007
435
root  -34.9842 28.3357 12.2225 -163.756 -50.7282 168.389
RightUpLeg  -49.7759 7.80002 -2.43925
RightLeg  69.9726 -1.54407 -3.67823
RightFoot  -18.8736 0.0996084 0.976877
RightToes  -18.248 -0.0719089 -0.162588
Spine  11.2196 -3.44565 7.31437
Spine1  21.3177 -5.68314 5.82808
HEad  18.9319 -1.03898 -5.47953
LeftShoulder1  0 -2.42657e-020 -4.95415e-022
LeftArm  -27.1926 -4.32624 -87.9897
LeftForeArm  -150.698 -20.2406 -3.31266
LeftHand  11.0388 -24.9475 -47.5745
RightShoulder  0 2.42657e-020 1.07489e-018
RightArm  -85.0388 24.4205 42.7192
RightForeArm  43.3649 33.3505 6.64772
RightHand  -2.67155 23.5717 -12.3864
LeftUpLeg  -10.8491 -6.99722 -0.619191
LeftLeg  77.4244 0.718941 2.44011
LeftFoot  -9.77842 -0.0427923 -0.500263
LeftToes  -23.1142 1.18758e-006 1.19596e-007
436
root  -37.1241 27.5334 11.3074 -163.803 -49.9236 168.794
RightUpLeg  -48.7155 8.62207 -2.77401
RightLeg  75.9005 -1.31755 -4.36075
RightFoot  -25.5263 0.271919 1.57798
RightToes  -18.2777 -0.0720669 -0.162832
Spine  12.3567 -2.23701 8.16396
Spine1  23.532 -2.56395 6.18874
HEad  15.7223 -4.53494 -3.09283
LeftShoulder1  0 -2.42657e-020 -4.95415e-022
LeftArm  -27.3368 -5.90092 -87.8548
LeftForeArm  -153.445 -21.1648 -3.49522
LeftHand  11.1333 -25.3888 -47.1747
RightShoulder  0 2.42657e-020 1.07489e-018
RightArm  -84.9602 23.6184 35.2773
RightForeArm  45.8182 26.1307 4.93869
RightHand  -3.98435 25.2306 -17.3026
LeftUpLeg  -23.0936 -8.08515 2.24156
LeftLeg  86.2317 0.686646 5.18378
LeftFoot  -15.6822 -0.230035 -1.67028
LeftToes  -13.6743 1.18758e-006 1.19596e-007
437
root  -39.2573 27.106 10.3681 -163.431 -48.664 168.126
RightUpLeg  -45.542 10.0198 -3.85583
RightLeg  79.006 -1.31027 -5.32806
RightFoot  -30.9282 0.56837 2.43188
RightToes  -18.7771 -0.0747472 -0.166918
Spine  13.3611 -1.39632 7.83786
Spine1  25.1819 -0.24626 5.55335
HEad  13.3028 -8.2129 0.993651
LeftShoulder1  0 -2.42657e-020 -4.95415e-022
LeftArm  -25.8988 -7.25883 -86.5826
LeftForeArm  -156.649 -21.7371 -3.60936
LeftHand  11.2818 -25.7591 -47.106
RightShoulder  0 2.42657e-020 1.07489e-018
RightArm  -85.3065 24.1345 30.9284
RightForeArm  53.3889 17.6477 3.18011
RightHand  -3.58511 26.9788 -14.4994
LeftUpLeg  -35.0668 -8.74819 5.11108
LeftLeg  89.5602 0.31535 4.27262
LeftFoot  -17.919 -0.278992 -1.76945
LeftToes  -12.2379 1.18758e-006 1.19596e-007
438
root  -41.5005 26.9882 9.33956 -162.479 -47.7402 166.856
RightUpLeg  -40.2668 12.3016 -5.20559
RightLeg  79.0812 -1.76718 -7.0882
RightFoot  -36.1583 1.15794 3.92372
RightToes  -16.1892 -0.0612495 -0.145499
Spine  13.7877 -0.93487 6.88306
Spine1  25.6411 1.40343 4.19546
HEad  13.1507 -12.0646 4.53084
LeftShoulder1  0 -2.42657e-020 -4.95415e-022
LeftArm  -24.5079 -7.51615 -84.8154
LeftForeArm  -157.619 -22.5821 -3.78065
LeftHand  11.2991 -25.7398 -47.2027
RightShoulder  0 2.42657e-020 1.07489e-018
RightArm  -84.1929 26.0101 27.8223
RightForeArm  63.2332 8.3088 1.42557
RightHand  -0.983701 30.0119 -3.29918
LeftUpLeg  -45.2617 -9.39188 7.89724
LeftLeg  86.6294 0.436791 3.47063
LeftFoot  -18.2686 -0.272544 -1.69494
LeftToes  -7.38055 1.18758e-006 1.19596e-007
439
root  -43.9099 27.18 8.20349 -160.858 -48.309 164.829
RightUpLeg  -33.0081 14.1168 -6.17636
RightLeg  76.6656 -2.91976 -9.71524
RightFoot  -39.9223 2.09934 6.1535
RightToes  -14.2184 -0.0516267 -0.12879
Spine  13.3371 -0.834926 5.34117
Spine1  24.4877 1.90769 2.73805
HEad  14.7235 -17.8978 9.13582
LeftShoulder1  0 -2.42657e-020 -4.95415e-022
LeftArm  -22.853 -7.10966 -83.3292
LeftForeArm  -158.008 -22.8817 -3.8419
LeftHand  11.2853 -25.1524 -48.1563
RightShoulder  0 2.42657e-020 1.07489e-018
RightArm  -73.7985 27.5401 29.7376
RightForeArm  77.8651 -0.210332 -0.115124
RightHand  3.12081 26.45 13.597
LeftUpLeg  -52.4821 -11.0576 10.153
LeftLeg  77.0342 0.479267 1.57924
LeftFoot  -16.6016 -0.161567 -1.10737
LeftToes  -10.3729 1.18758e-006 1.19596e-007
440
root  -46.4539 27.6521 6.90149 -158.489 -50.1863 161.996
RightUpLeg  -23.789 14.3161 -6.28296
RightLeg  71.5256 -5.10068 -12.4863
RightFoot  -41.235 3.11065 8.63351
RightToes  -13.1082 -0.0464611 -0.119236
Spine  11.923 -0.955593 3.35787
Spine1  21.6933 1.29004 1.4224
HEad  17.1038 -25.4673 14.8556
LeftShoulder1  0 -2.42657e-020 -4.95415e-022
LeftArm  -21.8864 -4.98411 -82.4897
LeftForeArm  -157.444 -24.3571 -4.14774
LeftHand  11.2161 -25.3016 -47.6364
RightShoulder  0 2.42657e-020 1.07489e-018
RightArm  -60.806 22.4481 38.6423
RightForeArm  71.9971 2.42514 0.36255
RightHand  3.59042 20.4501 20.0905
LeftUpLeg  -55.496 -12.7319 11.1286
LeftLeg  60.6752 -0.486121 -0.759119
LeftFoot  -11.922 -0.0426857 -0.40881
LeftToes  -16.1575 1.18758e-006 1.19596e-007
